<?xml version="1.0" encoding="utf-8"?>
<!-- Generator: Adobe Illustrator 15.0.0, SVG Export Plug-In . SVG Version: 6.00 Build 0)  -->
<!DOCTYPE svg PUBLIC "-//W3C//DTD SVG 1.1//EN" "http://www.w3.org/Graphics/SVG/1.1/DTD/svg11.dtd">
<svg version="1.1" xmlns="http://www.w3.org/2000/svg" xmlns:xlink="http://www.w3.org/1999/xlink" x="0px" y="0px"
	 width="2123.353px" height="1402.282px" viewBox="0 0 2123.353 1402.282" enable-background="new 0 0 2123.353 1402.282"
	 xml:space="preserve">
<g id="Layer_5">
	<rect fill="#37BECC" width="2123.353" height="1401.282"/>
</g>
<g id="Layer_2">
	<circle fill="#F75A2F" cx="1624.541" cy="535.468" r="383.601"/>
</g>
<g id="Layer_6">
	<polygon fill="#4D92F7" points="1153.885,376.646 1170.606,410.527 1207.997,415.963 1180.941,442.336 1187.328,479.575 
		1153.885,461.992 1120.441,479.575 1126.829,442.336 1099.773,415.963 1137.163,410.527 	"/>
	<polygon fill="#4D92F7" points="1582.929,371.74 1581.571,409.499 1611.904,432.025 1575.574,442.402 1563.526,478.213 
		1542.43,446.866 1504.648,446.474 1527.941,416.726 1516.64,380.672 1552.132,393.629 	"/>
	<polygon fill="#4D92F7" points="1183.777,953.292 1191.439,990.291 1226.259,1004.956 1193.441,1023.675 1190.256,1061.325 
		1162.31,1035.895 1125.52,1044.501 1141.067,1010.065 1121.516,977.736 1159.071,981.878 	"/>
	<polygon fill="#4D92F7" points="1362.63,161.187 1396.847,177.21 1429.446,158.108 1424.781,195.601 1453.025,220.698 
		1415.924,227.849 1400.781,262.467 1382.516,229.392 1344.916,225.687 1370.725,198.092 	"/>
	<polygon fill="#4D92F7" points="1872.359,1039.487 1889.081,1073.368 1926.471,1078.803 1899.415,1105.177 1905.802,1142.416 
		1872.359,1124.833 1838.916,1142.416 1845.303,1105.177 1818.247,1078.803 1855.637,1073.368 	"/>
	<polygon fill="#4D92F7" points="818.326,218.376 835.048,252.257 872.438,257.693 845.382,284.066 851.77,321.305 818.326,303.722 
		784.883,321.305 791.271,284.066 764.214,257.693 801.604,252.257 	"/>
	<polygon fill="#4D92F7" points="1937.96,455.931 1954.682,489.812 1992.073,495.248 1965.016,521.621 1971.404,558.86 
		1937.96,541.276 1904.517,558.86 1910.905,521.621 1883.848,495.248 1921.239,489.812 	"/>
	<polygon fill="#4D92F7" points="1309.141,588.17 1316.803,625.169 1351.623,639.834 1318.805,658.555 1315.62,696.203 
		1287.673,670.774 1250.883,679.38 1266.431,644.944 1246.879,612.614 1284.435,616.757 	"/>
</g>
<g id="Layer_4">
	<path fill="#FFFFFF" d="M1379.016,218.128c0,6.924-5.612,12.537-12.536,12.537h-135.81c-6.924,0-12.537-5.612-12.537-12.537l0,0
		c0-6.924,5.613-12.536,12.537-12.536h135.81C1373.404,205.592,1379.016,211.204,1379.016,218.128L1379.016,218.128z"/>
	<path fill="#FFFFFF" d="M1436.998,241.634c0,6.924-5.613,12.536-12.536,12.536h-202.149c-6.924,0-12.536-5.612-12.536-12.536l0,0
		c0-6.924,5.612-12.537,12.536-12.537h202.149C1431.384,229.097,1436.998,234.71,1436.998,241.634L1436.998,241.634z"/>
	<path fill="#FFFFFF" d="M1397.822,262.005c0,6.924-5.613,12.536-12.537,12.536h-202.149c-6.924,0-12.536-5.612-12.536-12.536l0,0
		c0-6.924,5.612-12.536,12.536-12.536h202.149C1392.208,249.469,1397.822,255.082,1397.822,262.005L1397.822,262.005z"/>
	<path fill="#FFFFFF" d="M1481.056,300.13c0,10.386-8.42,18.805-18.805,18.805h-202.33c-10.385,0-18.804-8.419-18.804-18.805
		v-10.962c0-10.385,8.419-18.804,18.804-18.804h202.33c10.385,0,18.805,8.419,18.805,18.804V300.13z"/>
	<path fill="#FFFFFF" d="M1368.57,289.69c0,9.231-7.484,16.715-16.716,16.715h-181.253c-9.232,0-16.716-7.484-16.716-16.715l0,0
		c0-9.232,7.484-16.716,16.716-16.716h181.253C1361.085,272.975,1368.57,280.458,1368.57,289.69L1368.57,289.69z"/>
	<path fill="#FFFFFF" d="M1170.601,321.031c0-9.809,7.951-17.76,17.759-17.76h148.347c9.808,0,17.759,7.952,17.759,17.76l0,0
		c0,9.808-7.952,17.759-17.759,17.759H1188.36C1178.552,338.791,1170.601,330.839,1170.601,321.031L1170.601,321.031z"/>
	<path fill="#FFFFFF" d="M1428.639,336.179c0,10.097-8.186,18.282-18.283,18.282h-93.499c-10.097,0-18.283-8.185-18.283-18.282l0,0
		c0-10.097,8.186-18.282,18.283-18.282h93.499C1420.454,317.897,1428.639,326.082,1428.639,336.179L1428.639,336.179z"/>
	<path fill="#FFFFFF" d="M1318.424,348.677c0,8.222-6.666,14.887-14.887,14.887h-67.383c-8.221,0-14.887-6.666-14.887-14.887l0,0
		c0-8.222,6.666-14.887,14.887-14.887h67.383C1311.759,333.791,1318.424,340.456,1318.424,348.677L1318.424,348.677z"/>
	<path fill="#FFFFFF" d="M1307.977,359.517c0-5.987,4.853-10.839,10.839-10.839h34.213c5.987,0,10.839,4.853,10.839,10.839l0,0
		c0,5.986-4.853,10.838-10.839,10.838h-34.213C1312.83,370.355,1307.977,365.502,1307.977,359.517L1307.977,359.517z"/>
	<path fill="#FFFFFF" d="M1791.592,478.256c0,10.385-8.42,18.804-18.805,18.804H1499.86c-10.386,0-18.804-8.419-18.804-18.804
		v-12.537c0-10.385,8.418-18.804,18.804-18.804h272.928c10.385,0,18.805,8.419,18.805,18.804V478.256z"/>
	<path fill="#FFFFFF" d="M1808.83,446.915c0,10.385-8.42,18.804-18.805,18.804h-159.318c-10.385,0-18.805-8.419-18.805-18.804
		v-3.134c0-10.385,8.42-18.805,18.805-18.805h159.318c10.385,0,18.805,8.419,18.805,18.805V446.915z"/>
	<path fill="#FFFFFF" d="M1965.534,508.03c0,9.52-7.718,17.237-17.237,17.237h-344.75c-9.52,0-17.237-7.717-17.237-17.237l0,0
		c0-9.521,7.717-17.238,17.237-17.238h344.75C1957.816,490.792,1965.534,498.509,1965.534,508.03L1965.534,508.03z"/>
	<path fill="#FFFFFF" d="M1241.117,507.395c0,10.385-8.419,18.804-18.804,18.804H938.321c-10.385,0-18.804-8.419-18.804-18.804l0,0
		c0-10.384,8.419-18.804,18.804-18.804h283.992C1232.698,488.591,1241.117,497.011,1241.117,507.395L1241.117,507.395z"/>
	<path fill="#FFFFFF" d="M1241.117,475.588c0,8.913-7.225,16.137-16.137,16.137h-216.462c-8.913,0-16.137-7.225-16.137-16.137l0,0
		c0-8.913,7.225-16.137,16.137-16.137h216.462C1233.892,459.451,1241.117,466.676,1241.117,475.588L1241.117,475.588z"/>
	<path fill="#FFFFFF" d="M1170.601,539.615c0-9.14-7.41-16.55-16.55-16.55h-148.126c-9.14,0-16.549,7.41-16.549,16.55l0,0
		c0,9.14,7.409,16.549,16.549,16.549h148.126C1163.19,556.164,1170.601,548.754,1170.601,539.615L1170.601,539.615z"/>
	<path fill="#FFFFFF" d="M1116.749,452.399c0,5.625-4.561,10.186-10.186,10.186h-50.181c-5.625,0-10.186-4.561-10.186-10.186l0,0
		c0-5.625,4.561-10.186,10.186-10.186h50.181C1112.188,442.214,1116.749,446.774,1116.749,452.399L1116.749,452.399z"/>
	<path fill="#FFFFFF" d="M1194.52,1080.337c0,5.86-8.419,10.614-18.805,10.614H926.57c-10.386,0-18.805-4.754-18.805-10.614v-8.398
		c0-5.861,8.419-10.614,18.805-10.614h249.145c10.386,0,18.805,4.753,18.805,10.614V1080.337z"/>
	<path fill="#FFFFFF" d="M858.928,1099.509c0-7.9,6.403-14.303,14.302-14.303h286.356c7.899,0,14.302,6.402,14.302,14.303l0,0
		c0,7.897-6.403,14.302-14.302,14.302H873.23C865.331,1113.811,858.928,1107.407,858.928,1099.509L858.928,1099.509z"/>
	<path fill="#FFFFFF" d="M1243.149,1059.255c0,5.861-8.419,10.614-18.804,10.614H975.199c-10.385,0-18.804-4.753-18.804-10.614
		v-8.398c0-5.861,8.419-10.614,18.804-10.614h249.146c10.385,0,18.804,4.753,18.804,10.614V1059.255z"/>
	<path fill="#FFFFFF" d="M1116.749,1129.69c0,5.861-5.29,10.614-11.813,10.614H948.423c-6.523,0-11.812-4.753-11.812-10.614v-8.398
		c0-5.861,5.289-10.614,11.812-10.614h156.512c6.524,0,11.813,4.753,11.813,10.614V1129.69z"/>
	<path fill="#FFFFFF" d="M1146.953,1031.021c0,5.861-4.031,10.614-9,10.614h-119.251c-4.971,0-9-4.753-9-10.614v-8.398
		c0-5.861,4.029-10.614,9-10.614h119.251c4.969,0,9,4.753,9,10.614V1031.021z"/>
</g>
<g id="Layer_3">
	<g>
		<g>
			<path fill="#F8FCE0" d="M1509.505,692.156l-295.452,9.125v12.53l296.072,9.46l345.103,9.81l30.684-1.843l1.925-87.751
				C1887.836,643.487,1671.026,681.783,1509.505,692.156"/>
			<path fill="#FFCDCD" d="M1738.716,801.74c-85.404-35.82-157.151-49.512-157.151-49.512
				c-68.791-17.272-247.411-20.191-247.411-20.191l-120.099-7.202v10.223l120.433,6.553
				c166.349,10.617,229.856,33.961,229.856,33.961c84.827,31.665,200.17,131.573,272.557,199.755c41.071,38.681,70,36.846,70,36.846
				l8.072-123.515L1738.716,801.74z"/>
			<path fill="#3D9898" d="M1214.054,712.129v12.891l304.543,19.134c114.773,9.042,217.104,56.043,274.882,87.388
				c31.627,17.16,37.538,13.118,37.538,13.118l3.703-113.427L1214.054,712.129z"/>
			<path fill="#983D3D" d="M1839.379,547.76c0,0-189.082,106.948-320.782,120.511c0,0-115.384,15.012-304.543,23.233v12.025
				c66.757-1.351,171.362-3.394,230.638-4.173c215.36-11.703,428.234-48.937,428.234-48.937L1839.379,547.76z"/>
			<path fill="#E57373" d="M1781.811,303.61c0,0-138.326,239.361-223.642,301.065c0,0-48.353,41.222-262.367,53.988l-81.749,6.781
				v13.606l81.542-4.164c0,0,204.436-3.388,284.938-44.679c0,0,194.651-123.405,323.868-257.447L1781.811,303.61z"/>
			<path fill="#9EDDDB" d="M1904.075,399.042c0,0-11.756-19.011-32.315-0.612c-67.769,60.65-223.125,195.965-307.17,239.224
				c0,0-73.204,27.659-229.752,34.042l-120.782,6.73v13.494l120.079-6.697c0,0,168.993-6.666,237.744-24.217
				c0,0,68.875-17.92,154.191-54.089l209.895-100.103L1904.075,399.042z"/>
			<path fill="#E57373" d="M1932.196,593.865c0,30.986-25.119,56.106-56.106,56.106c-30.985,0-56.107-25.12-56.107-56.106
				c0-30.985,25.122-56.105,56.107-56.105C1907.077,537.76,1932.196,562.879,1932.196,593.865"/>
			<path fill="#983D3D" d="M1925.468,325.982c0,41.018-33.251,74.269-74.27,74.269c-41.02,0-74.269-33.251-74.269-74.269
				c0-41.018,33.249-74.27,74.269-74.27C1892.217,251.712,1925.468,284.964,1925.468,325.982"/>
			<path fill="#E57373" d="M1917.666,793.535c0,36.188-29.337,65.523-65.525,65.523c-36.188,0-65.523-29.336-65.523-65.523
				c0-36.189,29.336-65.525,65.523-65.525C1888.329,728.009,1917.666,757.346,1917.666,793.535"/>
			<path fill="#3D9898" d="M1965.564,949.877c0,34.553-28.011,62.564-62.563,62.564c-34.555,0-62.565-28.012-62.565-62.564
				s28.011-62.563,62.565-62.563C1937.553,887.314,1965.564,915.325,1965.564,949.877"/>
			<path fill="#E57373" d="M1583.018,783.228c-68.458-35.037-284.938-44.681-284.938-44.681l-84.025-4.218l-9.76,13.592l93.992,6.85
				c214.013,12.765,262.367,53.988,262.367,53.988c85.317,61.703,224.751,300.288,224.751,300.288l109.927-89.34
				C1745.458,841.591,1583.018,783.228,1583.018,783.228"/>
			<path fill="#983D3D" d="M1914.973,1065.32c0,40.052-32.467,72.521-72.521,72.521c-40.051,0-72.52-32.469-72.52-72.521
				c0-40.053,32.469-72.521,72.52-72.521C1882.506,992.798,1914.973,1025.267,1914.973,1065.32"/>
			<path fill="#3D9898" d="M1975.79,448.017c0,35.295-28.613,63.91-63.91,63.91s-63.908-28.614-63.908-63.91
				c0-35.296,28.611-63.911,63.908-63.911S1975.79,412.72,1975.79,448.017"/>
			<path fill="#3D9898" d="M1926.815,691.009c0,23.408-18.976,42.382-42.384,42.382c-23.407,0-42.382-18.975-42.382-42.382
				s18.975-42.383,42.382-42.383C1907.839,648.626,1926.815,667.602,1926.815,691.009"/>
			<g opacity="0.5">
				<g>
					<defs>
						<rect id="SVGID_1_" x="1137.015" y="599.803" width="201.24" height="211.303"/>
					</defs>
					<clipPath id="SVGID_2_">
						<use xlink:href="#SVGID_1_"  overflow="visible"/>
					</clipPath>
					<g clip-path="url(#SVGID_2_)">
						<defs>
							<rect id="SVGID_3_" x="1137.015" y="599.803" width="201.24" height="211.303"/>
						</defs>
						<clipPath id="SVGID_4_">
							<use xlink:href="#SVGID_3_"  overflow="visible"/>
						</clipPath>
						<g clip-path="url(#SVGID_4_)">
							
								<image overflow="visible" width="120" height="126" xlink:href="B0FECAA9.png"  transform="matrix(1.677 0 0 1.677 1137.0146 599.8027)">
							</image>
						</g>
					</g>
				</g>
			</g>
			<path fill="#F8FCE0" d="M778.486,745.917c0,0,2.465,18.993,66.531,20.534c57.112,3.385,30.832,2.712,59.199,3.226
				c0.582,0.014,1.121,0.17,1.704,0.17h21.812h170.559l204.924,94.45h99.454l-117.368-94.45h99.128
				c14.081,1.573,121.044,0.072,154.035-4.426l32.29-73.33l17.234-38.263l2.911-6.485l7.851,3.84h37.578l-32.73-32.05l3.112-6.906
				l28.421-63.156l3.115-9.457h-68.39l-35.102,33.285l-22.123,20.97l-43.152,40.904h-252.582l29.716-52.663h-73.422l-80.075,52.663
				H962.809c-12.825,0-31.58,3.656-50.645,9.898c12.585-1.226,22.904-0.242,22.904,11.543c0,20.462-16.579,37.04-37.037,37.04
				h-37.364h-11.205c-3.225,0-6.297,0.341-9.285,0.756c-3.793,0.523-13.228,3.172-24.994,7.959
				C772.739,720.454,777.309,736.431,778.486,745.917 M1302.062,666.608h51.538l7.112,26.66h-51.54L1302.062,666.608z
				 M1216.755,666.608h51.541l7.107,26.66h-51.539L1216.755,666.608z M1131.449,666.608h51.538l7.107,26.66h-51.54L1131.449,666.608
				z M1046.139,666.608h51.54l7.109,26.66h-51.54L1046.139,666.608z"/>
			<path fill="#3D9898" d="M1413.004,730.434c4.438,6.652,7.253,17.333,7.253,29.958c0,3.312-0.257,6.444-0.612,9.456
				c-1.025,8.489-3.37,15.609-6.642,20.533c57.965-1.081,101.788-10.197,118.976-20.533c2.216-1.336,4.11-2.689,5.405-4.039
				c1.732-1.804,2.657-3.627,2.657-5.417c0-0.1-0.073-0.202-0.073-0.299C1539.218,746.601,1487.849,731.815,1413.004,730.434"/>
			<path fill="#9EDDDB" d="M1422.838,769.902c0.398-2.92,0.679-6.01,0.679-9.428c0-14.41-4.064-24.623-8.003-28.38
				c-1.081-1.021-2.146-1.66-3.113-1.66c-0.144,0-0.3,0.099-0.44,0.128c-1.124,0.182-2.348,1.005-3.557,2.467
				c-3.639,4.383-7.107,14.128-7.107,27.445c0,3.418,0.282,6.508,0.68,9.428c1.166,8.484,3.728,14.766,6.427,18.027
				c1.209,1.46,2.433,2.295,3.557,2.467c0.141,0.027,0.297,0.143,0.44,0.143c0.967,0,2.032-0.637,3.113-1.661
				C1418.513,786.013,1421.543,779.336,1422.838,769.902"/>
			<polyline fill="#3D9898" points="1217.351,634.528 1246.766,582.046 1173.342,582.046 1093.267,634.71 			"/>
			<path fill="#9EDDDB" d="M913.24,644.463c12.831-1.21,23.328-0.037,23.328,11.632c0,20.255-17.273,37.478-38.135,37.478
				l-37.738-0.128l-10.871-0.123c-3.291,0-7.327,0.592-10.37,0.998C839.455,694.319,859.451,652.462,913.24,644.463"/>
			<rect x="1824.888" y="787.682" fill="#F8FCE0" width="6.566" height="3.284"/>
			<path fill="#F8FCE0" d="M1897.131,792.609h-77.171v-5.524c0.941-0.622,3.48-1.393,4.484-1.393c0.318,0,0.618,0.162,0.797,0.351
				h5.054c-0.17-2.887-2.766-5.277-5.851-5.277c-1.119,0-9.409,1.208-9.409,5.712v6.132h-4.926c-1.36,0-2.462,1.104-2.462,2.464
				c0,1.358,1.102,2.46,2.462,2.46h87.021c1.359,0,2.463-1.102,2.463-2.46C1899.594,793.712,1898.491,792.609,1897.131,792.609"/>
			<path fill="#F8FCE0" d="M1808.067,800.513c0,0,3.257,1.173,5.138,7.623c1.236,4.244-1.414,12.722,9.993,18.032
				c-0.002,0.038-0.008,0.092-0.01,0.126l-0.262,5.449c-0.043,0.904,0.542,1.244,1.306,0.756l4.588-2.925
				c0.402-0.257,0.927-0.632,1.38-1.051c5.2,1.266,12.062,2.1,21.154,2.275l-0.134,0.038c0.65,0,1.251-0.016,1.881-0.02
				c0.631,0.004,1.232,0.02,1.883,0.02l-0.184-0.038c9.312-0.175,16.315-1.042,21.607-2.355c0.47,0.45,1.025,0.857,1.456,1.13
				l4.588,2.924c0.765,0.488,1.35,0.147,1.307-0.756l-0.265-5.449c-0.003-0.08-0.015-0.184-0.019-0.272
				c11.23-5.316,8.901-13.683,10.127-17.887c1.881-6.45,4.738-7.624,4.738-7.624l-45.541-0.29L1808.067,800.513z"/>
			<path fill="#F8FCE0" d="M1839.339,775.243c0.432,0.302,0.921,0.489,1.452,0.489c1.401,0,2.567-1.207,2.888-2.826h-2.312
				C1841.059,773.913,1840.263,774.749,1839.339,775.243"/>
			<path fill="#F8FCE0" d="M1841.405,771.265h2.301c-0.288-1.676-1.481-2.932-2.914-2.932c-0.533,0-1.023,0.187-1.457,0.49
				C1840.294,769.337,1841.125,770.209,1841.405,771.265"/>
			<path fill="#F8FCE0" d="M1840.372,778.19c3.395,0,6.155-2.763,6.155-6.155c0-3.396-2.761-6.155-6.155-6.155
				c-3.393,0-6.156,2.759-6.156,6.155C1834.215,775.427,1836.979,778.19,1840.372,778.19 M1837.778,768.353
				c0.736-0.519,1.626-0.833,2.596-0.833c2.225,0,4.067,1.622,4.437,3.745c0.043,0.25,0.076,0.504,0.076,0.77
				c0,0.297-0.032,0.589-0.087,0.871c-0.408,2.073-2.237,3.643-4.426,3.643c-0.97,0-1.862-0.315-2.599-0.838
				c-1.155-0.815-1.916-2.156-1.916-3.675C1835.859,770.511,1836.62,769.172,1837.778,768.353"/>
			<path fill="#F8FCE0" d="M1862.594,781.116h-2.377c-0.259,1.368-1.431,2.478-2.696,2.928c0.402,0.136,0.828,0.225,1.276,0.225
				C1860.73,784.268,1862.317,782.896,1862.594,781.116"/>
			<path fill="#F8FCE0" d="M1860.056,779.472h2.403c-0.488-1.503-1.934-2.603-3.659-2.603c-0.45,0-0.876,0.087-1.274,0.223
				C1858.61,777.48,1859.626,778.36,1860.056,779.472"/>
			<path fill="#F8FCE0" d="M1859.148,786.724h0.004c3.393,0,6.153-2.76,6.153-6.156c0-3.395-2.761-6.154-6.153-6.154
				c-3.396,0-6.156,2.76-6.156,6.154C1852.996,783.964,1855.754,786.724,1859.148,786.724 M1856.552,776.888
				c0.737-0.521,1.63-0.833,2.6-0.833c2.107,0,3.869,1.458,4.36,3.417c0.09,0.354,0.151,0.718,0.151,1.096
				c0,0.188-0.034,0.366-0.056,0.548c-0.273,2.229-2.156,3.969-4.46,3.969c-0.969,0-1.861-0.315-2.599-0.838
				c-1.151-0.818-1.913-2.159-1.913-3.679C1854.636,779.047,1855.4,777.709,1856.552,776.888"/>
			<path fill="#F8FCE0" d="M1872.637,756.669c0-0.061-0.011-0.119-0.014-0.184h-2.118c0.005,0.064,0.024,0.123,0.024,0.184
				c0,1.393-1.001,2.591-2.195,3.222c0.417,0.295,0.891,0.48,1.401,0.48C1871.339,760.37,1872.637,758.712,1872.637,756.669"/>
			<path fill="#F8FCE0" d="M1869.917,754.845h2.331c-0.502-1.116-1.433-1.875-2.513-1.875c-0.511,0-0.982,0.184-1.401,0.478
				C1868.957,753.777,1869.515,754.259,1869.917,754.845"/>
			<path fill="#F8FCE0" d="M1869.39,762.826c3.396,0,6.158-2.762,6.158-6.157c0-3.394-2.763-6.153-6.158-6.153
				c-3.392,0-6.153,2.759-6.153,6.153C1863.237,760.063,1865.999,762.826,1869.39,762.826 M1866.794,752.99
				c0.734-0.52,1.628-0.834,2.596-0.834c1.839,0,3.42,1.108,4.122,2.689c0.227,0.506,0.353,1.062,0.377,1.64
				c0.003,0.064,0.019,0.123,0.019,0.184c0,2.489-2.024,4.515-4.517,4.515c-0.967,0-1.862-0.314-2.597-0.837
				c-1.152-0.817-1.914-2.16-1.914-3.678C1864.878,755.148,1865.641,753.809,1866.794,752.99"/>
			<path fill="#F8FCE0" d="M1926.867,451.069c0-3.692-3.96-16.66-0.128-26.726l-0.262-0.473h-6.85l3.438-8.87l11.105,4.848
				l-6.928-17.658l-17.652,6.929l11.159,4.865l-3.838,9.886h-21.385l-0.26,0.47c3.227,16.796-0.129,23.042-0.129,26.729
				c0,9.316,5.89,17.05,13.542,18.369v23c-4.582,0.188-7.998,0.885-7.998,1.711c0,0.974,4.66,1.763,10.395,1.763
				c5.751,0,10.402-0.789,10.402-1.763c0-0.826-3.409-1.522-7.991-1.711v-23.023C1921.059,468.01,1926.867,460.308,1926.867,451.069
				 M1924.624,425.729c-1.246,2.035-1.325,6.54-1.026,11.214c0,0-3.99-2.792-8.2-2.179l3.506-9.039h5.721V425.729z M1898.41,436.568
				c0.202-4.331,0-8.507-1.287-10.84h19.067L1912.211,436c-0.261,0.166-0.508,0.355-0.756,0.568
				C1907.227,440.188,1900.725,437.655,1898.41,436.568"/>
			<path fill="#F8FCE0" d="M1889.641,1074.479c0-3.964-8.214-7.459-20.691-9.514l-3.159,2.378
				c7.884,1.298,12.907,3.255,12.907,5.438c0,0.901-0.857,1.762-2.406,2.555c-5.172,2.641-18.127,4.514-33.3,4.514
				c-15.171,0-28.127-1.873-33.296-4.514c-1.552-0.793-2.41-1.653-2.41-2.555c0-1.811,3.453-3.465,9.123-4.715l-2.494-2.537
				c-10.703,2.097-17.568,5.327-17.568,8.949c0,0.288,0.056,0.574,0.143,0.857h-0.144l0.222,0.254c0.344,0.88,1.104,1.73,2.213,2.54
				l13.734,15.761h-0.643c-2.027,0-3.675,1.644-3.675,3.673v0.386c0,2.027,1.647,3.673,3.675,3.673h63.786
				c2.029,0,3.672-1.646,3.672-3.673v-0.386c0-2.029-1.643-3.673-3.672-3.673h-2.188l13.733-15.761c1.111-0.81,1.87-1.66,2.212-2.54
				l0.227-0.254h-0.145C1889.581,1075.053,1889.641,1074.767,1889.641,1074.479"/>
			<path fill="#F8FCE0" d="M1855.236,1066.143l0.415,4.963l5.808-4.373l3.183-2.396l23.186-17.459l-35.716-18.252l0.609,7.31
				l15.239,3.473c0.532,0.121,0.959,0.513,1.127,1.031c0.167,0.518,0.051,1.085-0.306,1.494l-14.207,16.244l0.436,5.236
				L1855.236,1066.143z M1875.465,1042.861c1.279,0,2.318,1.039,2.318,2.322c0,1.279-1.039,2.318-2.318,2.318
				c-1.281,0-2.32-1.039-2.32-2.318C1873.145,1043.9,1874.184,1042.861,1875.465,1042.861 M1871.598,1050.594
				c1.709,0,3.093,1.383,3.093,3.091c0,1.709-1.384,3.095-3.093,3.095c-1.708,0-3.093-1.386-3.093-3.095
				C1868.505,1051.977,1869.89,1050.594,1871.598,1050.594"/>
			<path fill="#F8FCE0" d="M1834.166,1065.932l2.808,7.667l6.893-7.88l2.326-2.659l5.19-5.935l1.416-1.618l1.415-1.619
				l10.532-12.039l-11.758-2.681l-1.581-0.359l-1.583-0.361l-12.861-2.931l-6.084,21.447l2.313,6.318L1834.166,1065.932z
				 M1849.764,1041.43c0.092-0.087,0.195-0.148,0.295-0.219c0.453-0.33,0.972-0.523,1.501-0.575
				c0.534-0.051,1.079,0.025,1.575,0.248c0.365,0.165,0.708,0.406,1,0.721c1.159,1.256,1.081,3.212-0.176,4.372
				c-0.119,0.106-0.246,0.195-0.378,0.284c-0.46,0.31-0.979,0.478-1.509,0.515c-0.54,0.038-1.082-0.062-1.576-0.307
				c-0.334-0.165-0.643-0.384-0.909-0.67C1848.429,1044.542,1848.51,1042.588,1849.764,1041.43 M1841.417,1044.924
				c0.942-0.871,2.41-0.81,3.277,0.13c0.868,0.942,0.81,2.408-0.133,3.277c-0.939,0.87-2.407,0.809-3.276-0.131
				C1840.417,1047.259,1840.475,1045.792,1841.417,1044.924"/>
			<path fill="#F8FCE0" d="M1832.574,1034.516l-8.949,2.629l-1.484,0.438l-1.487,0.438l-22.84,6.712l19.796,20.142l2.446,2.493
				l3.618,3.681l1.236-4.357l0.807-2.846l1.917-6.757l0.72-2.536l0.718-2.53l4.877-17.192l0.219-0.781L1832.574,1034.516z
				 M1810.309,1047.421c-1.152,0-2.081-0.932-2.081-2.083c0-1.149,0.932-2.082,2.081-2.082s2.081,0.933,2.081,2.082
				C1812.39,1046.49,1811.457,1047.421,1810.309,1047.421 M1816.553,1054.36c-1.532,0-2.776-1.242-2.776-2.776
				c0-1.531,1.244-2.774,2.776-2.774c1.533,0,2.775,1.243,2.775,2.774C1819.329,1053.118,1818.086,1054.36,1816.553,1054.36"/>
			<path fill="#F8FCE0" d="M1885.165,587.02c-5.332,0-9.669,4.337-9.669,9.667c0,5.329,4.337,9.668,9.669,9.668
				c5.328,0,9.664-4.34,9.664-9.668C1894.829,591.355,1890.497,587.02,1885.165,587.02"/>
			<path fill="#F8FCE0" d="M1901.003,575.227h-4.132l-5.249-4.918h-14.567l-4.262,4.918h-8.798
				c-0.395-1.624-1.462-2.733-2.734-2.733h-6.221c-1.281,0-2.355,1.122-2.741,2.767c-4.406,0.386-7.869,4.095-7.869,8.596v25.203
				c0,4.759,3.872,8.631,8.633,8.631h47.94c4.759,0,8.631-3.872,8.631-8.631v-25.203
				C1909.634,579.101,1905.762,575.227,1901.003,575.227 M1852.238,606.804c0,0.901-0.732,1.628-1.634,1.628
				c-0.9,0-1.629-0.727-1.629-1.628v-17.205c0-0.9,0.729-1.631,1.629-1.631c0.901,0,1.634,0.731,1.634,1.631V606.804z
				 M1862.05,581.598c0,0.95-0.772,1.722-1.723,1.722h-4.423c-0.949,0-1.722-0.771-1.722-1.722v-1.013c0-0.95,0.772-1.72,1.722-1.72
				h4.423c0.952,0,1.723,0.77,1.723,1.72V581.598z M1885.165,610.478c-7.605,0-13.793-6.188-13.793-13.794
				c0-7.6,6.188-13.79,13.793-13.79c7.604,0,13.788,6.19,13.788,13.79C1898.953,604.29,1892.768,610.478,1885.165,610.478"/>
			<path fill="#F8FCE0" d="M1808.682,360.829h86.111c-13.046-6.958-27.364-10.511-41.711-10.72v-39.94
				c1.637-1.971,4.083-3.158,6.728-3.158c3.532,0,6.715,2.123,8.072,5.381c1.356-3.258,4.541-5.381,8.071-5.381
				c3.533,0,6.72,2.123,8.074,5.381c0-17.375-13.742-31.515-30.945-32.224v-2.758c0-0.746-0.602-1.345-1.345-1.345
				c-0.745,0-1.347,0.599-1.347,1.345v2.758c-17.205,0.709-30.946,14.849-30.946,32.224c1.356-3.258,4.542-5.381,8.072-5.381
				c3.532,0,6.717,2.123,8.074,5.381c1.356-3.258,4.542-5.381,8.072-5.381c2.644,0,5.093,1.187,6.728,3.158v39.94
				C1836.04,350.318,1821.728,353.872,1808.682,360.829 M1853.083,282.907c0,0,10.26,3.847,14.8,24.739
				c-2.101-2.096-4.978-3.327-8.072-3.327c-2.486,0-4.814,0.82-6.728,2.224V282.907z M1835.591,307.646
				c-2.1-2.096-4.977-3.327-8.074-3.327c-1.583,0-3.109,0.32-4.505,0.915c3.102-12.446,14.131-21.721,27.379-22.327
				C1838.701,287.397,1835.591,307.646,1835.591,307.646"/>
			<path fill="#F8FCE0" d="M1938.252,945.276c0.351-0.341,0.569-0.817,0.569-1.344c0-1.037-0.84-1.879-1.878-1.879h-10.102
				l-2.681-7.87l3.692,0.462c1.165,0,2.112-2.242,2.112-3.41c0-1.167-0.947-3.414-2.112-3.414l-10.414,1.301
				c-1.167,0-2.113,0.946-2.113,2.11c0,1.165,0.946,2.11,2.113,2.11l3.768,0.47l-6.488,18.851
				c-15.334-4.308-25.066-19.075-27.076-22.37c2.033-2.666,7.02-5.953,10.784-6.812c1.085-0.34,1.559-0.481,1.559-1.669
				s-1.19-1.074-1.19-1.074c-5.075,1.103-8.644,3.328-11.146,5.769h-12.622c-2.615,0-4.744,2.129-4.744,4.746v5.722
				c0,2.617,1.126,4.747,3.741,4.747h5.721c0.592,0,1.15-0.123,1.673-0.32c-0.147,0.944-0.302,1.861-0.477,2.741
				c-1.358-0.356-2.78-0.564-4.249-0.564c-9.313,0.004-16.892,7.579-16.892,16.892c0,9.312,7.578,16.893,16.892,16.893
				c9.316,0,16.892-7.578,16.892-16.893c0-6.914-4.18-12.864-10.145-15.477c0.318-1.611,0.603-3.334,0.832-5.158
				c2.774,3.647,9.572,11.465,16.022,16.755c-0.058,0.331-0.103,0.666-0.103,1.012c0,1.765,0.785,3.332,2.008,4.42l-0.797,1.128
				l-1.165,1.545l-1.213-1.558l-1.027,0.802l1.433,1.832l-0.064,0.089l2.221,2.669l1.01-0.812l-1.528-1.958l2.159-3.002
				c0.861,0.488,1.846,0.786,2.902,0.786c1.673,0,3.178-0.697,4.26-1.81l3.706,0.007c0.651,8.722,7.939,15.625,16.825,15.625
				c9.315,0,16.893-7.578,16.893-16.894C1947.811,953.786,1943.901,948.012,1938.252,945.276 M1929.641,946.242v4.016l-1.308-3.837
				C1928.764,946.344,1929.2,946.282,1929.641,946.242 M1921.806,939.672l2.218,5.396c-1.988,0.894-3.768,2.158-5.262,3.706
				L1921.806,939.672z M1925.012,947.47l4.629,11.278v0.42h-12.946C1917.168,953.958,1920.451,949.553,1925.012,947.47
				 M1879.746,939.716h-5.721c-1.509,0-1.739-1.229-1.739-2.739v-1.859h3.518h6.563c-0.252,0.822-0.347,1.35-0.354,1.391
				c-0.068,0.789-0.155,1.548-0.24,2.298C1881.27,939.36,1880.552,939.716,1879.746,939.716 M1890.989,960.467
				c0,7.883-6.41,14.292-14.293,14.292c-7.88,0-14.292-6.409-14.292-14.292s6.412-14.29,14.292-14.29
				c1.285,0,2.523,0.187,3.708,0.505c-2.127,9.073-5.29,14.065-5.333,14.13l2.179,1.414c0.183-0.282,3.425-5.361,5.627-14.622
				C1887.664,949.913,1890.989,954.805,1890.989,960.467 M1883.108,933.112h-10.822v-1.858c0-1.51,1.231-2.739,2.742-2.739h10.819
				C1884.568,930.143,1883.691,931.76,1883.108,933.112 M1884.833,935.83c0.213-0.744,0.603-1.841,1.263-3.098
				c2.527,3.953,9.274,13.257,19.629,18.976c-1.749,0.121-3.282,0.989-4.289,2.301
				C1894.969,948.379,1887.728,939.808,1884.833,935.83 M1914.096,959.168h-2.265c0.14-0.502,0.235-1.02,0.235-1.567
				c0-1.312-0.44-2.511-1.158-3.492c1.266,0.478,2.559,0.92,3.91,1.268C1914.432,956.586,1914.198,957.858,1914.096,959.168
				 M1930.92,974.759c-7.451,0-13.58-5.734-14.227-13.019l16.825,0.027v-1.73h0.021V946.43c6.631,1.234,11.675,7.056,11.675,14.039
				C1945.214,968.35,1938.802,974.759,1930.92,974.759"/>
			<path fill="#F8FCE0" d="M1895.19,673.92c-3.77,0-7.176,1.974-8.759,5.052c-1.585-3.078-5.031-5.052-8.801-5.052
				c-5.887,0-13.783,4.749-10.188,17.7c4.109,12.656,18.988,20.102,18.988,20.099c0,0.003,14.857-7.438,18.968-20.099
				C1908.995,678.669,1901.075,673.92,1895.19,673.92"/>
		</g>
	</g>
</g>
<g id="Layer_7">
	<polygon fill="#4D92F7" points="403.52,741.603 420.242,775.484 457.632,780.92 430.576,807.293 436.963,844.532 403.52,826.949 
		370.077,844.532 376.464,807.293 349.408,780.92 386.798,775.484 	"/>
	<polygon fill="#4D92F7" points="120.25,33.951 136.971,67.833 174.362,73.268 147.306,99.642 153.693,136.88 120.25,119.297 
		86.806,136.88 93.194,99.642 66.138,73.268 103.528,67.833 	"/>
	<path fill="#FFFFFF" d="M490.752,872.352c0,10.385-8.419,18.805-18.804,18.805H187.956c-10.385,0-18.804-8.42-18.804-18.805l0,0
		c0-10.385,8.419-18.804,18.804-18.804h283.992C482.333,853.548,490.752,861.967,490.752,872.352L490.752,872.352z"/>
	<path fill="#FFFFFF" d="M490.752,840.545c0,8.912-7.225,16.137-16.137,16.137H258.153c-8.913,0-16.137-7.225-16.137-16.137l0,0
		c0-8.913,7.225-16.137,16.137-16.137h216.462C483.527,824.408,490.752,831.633,490.752,840.545L490.752,840.545z"/>
	<path fill="#FFFFFF" d="M420.236,904.572c0-9.14-7.41-16.55-16.55-16.55H255.56c-9.14,0-16.549,7.41-16.549,16.55l0,0
		c0,9.14,7.409,16.55,16.549,16.55h148.126C412.826,921.122,420.236,913.711,420.236,904.572L420.236,904.572z"/>
	<path fill="#FFFFFF" d="M366.384,817.356c0,5.625-4.561,10.186-10.186,10.186h-50.181c-5.625,0-10.186-4.561-10.186-10.186l0,0
		c0-5.625,4.561-10.186,10.186-10.186h50.181C361.823,807.171,366.384,811.731,366.384,817.356L366.384,817.356z"/>
	<polygon fill="#4D92F7" points="487.058,1110.461 503.78,1144.342 541.17,1149.778 514.114,1176.152 520.501,1213.39 
		487.058,1195.807 453.615,1213.39 460.002,1176.152 432.946,1149.778 470.336,1144.342 	"/>
	<polygon fill="#4D92F7" points="151.5,952.192 168.221,986.073 205.612,991.508 178.556,1017.881 184.943,1055.121 151.5,1037.538 
		118.056,1055.121 124.444,1017.881 97.388,991.508 134.778,986.073 	"/>
	<path fill="#FFFFFF" d="M574.29,1241.21c0,10.385-8.419,18.805-18.804,18.805H271.494c-10.385,0-18.804-8.42-18.804-18.805l0,0
		c0-10.385,8.419-18.804,18.804-18.804h283.992C565.871,1222.407,574.29,1230.826,574.29,1241.21L574.29,1241.21z"/>
	<path fill="#FFFFFF" d="M574.29,1209.404c0,8.912-7.225,16.137-16.137,16.137H341.691c-8.913,0-16.137-7.225-16.137-16.137l0,0
		c0-8.913,7.225-16.138,16.137-16.138h216.462C567.065,1193.266,574.29,1200.491,574.29,1209.404L574.29,1209.404z"/>
	<path fill="#FFFFFF" d="M503.774,1273.43c0-9.14-7.41-16.55-16.55-16.55H339.098c-9.14,0-16.549,7.41-16.549,16.55l0,0
		c0,9.14,7.409,16.55,16.549,16.55h148.126C496.364,1289.98,503.774,1282.57,503.774,1273.43L503.774,1273.43z"/>
	<path fill="#FFFFFF" d="M449.922,1186.215c0,5.625-4.561,10.186-10.186,10.186h-50.181c-5.625,0-10.186-4.561-10.186-10.186l0,0
		c0-5.626,4.561-10.186,10.186-10.186h50.181C445.361,1176.03,449.922,1180.589,449.922,1186.215L449.922,1186.215z"/>
</g>
</svg>
